<svg width="18" height="18" viewBox="0 0 18 18" fill="none" xmlns="http://www.w3.org/2000/svg">
<path fill-rule="evenodd" clip-rule="evenodd" d="M10.1808 11.715C11.1498 11.715 11.9386 12.4616 11.9386 13.3792V15.7393C11.9386 15.9365 12.1044 16.0945 12.3169 16.0991H13.851C15.0599 16.0991 16.0427 15.1738 16.0427 14.0367V7.34321C16.037 6.95191 15.8415 6.58363 15.5058 6.33887L10.1993 2.30465C9.48695 1.7668 8.49051 1.7668 7.77578 2.30618L2.50544 6.33734C2.15693 6.58977 1.96134 6.95805 1.95732 7.35625V14.0367C1.95732 15.1738 2.94007 16.0991 4.149 16.0991H5.69759C5.91571 16.0991 6.09278 15.9342 6.09278 15.7316C6.09278 15.6871 6.09841 15.6426 6.10807 15.6004V13.3792C6.10807 12.4669 6.89202 11.7212 7.85385 11.715H10.1808ZM13.851 17.25H12.3024C11.4154 17.2301 10.7313 16.5664 10.7313 15.7393V13.3792C10.7313 13.0961 10.4842 12.8659 10.1808 12.8659H7.85788C7.56088 12.8674 7.31539 13.0984 7.31539 13.3792V15.7316C7.31539 15.7891 7.30734 15.8444 7.29044 15.8966C7.20351 16.6561 6.52259 17.25 5.69759 17.25H4.149C2.27444 17.25 0.75 15.8083 0.75 14.0367V7.35088C0.758049 6.58823 1.12668 5.89003 1.76334 5.43044L7.02322 1.40619C8.18144 0.531524 9.79522 0.531524 10.951 1.40466L16.2487 5.43275C16.8709 5.88466 17.2395 6.58133 17.25 7.33477V14.0367C17.25 15.8083 15.7256 17.25 13.851 17.25Z" fill="#EDF2F7"/>
</svg>
