<svg width="18" height="18" viewBox="0 0 18 18" fill="none" xmlns="http://www.w3.org/2000/svg">
<path fill-rule="evenodd" clip-rule="evenodd" d="M3.01262 13.3807C3.24932 13.6181 3.36783 13.9486 3.33589 14.2823C3.26429 15.0301 3.09939 15.8083 2.88762 16.5313C4.45687 16.1686 5.41527 15.7479 5.85092 15.5271C6.0982 15.4018 6.38304 15.3722 6.6508 15.444C7.39087 15.6424 8.17961 15.75 9 15.75C13.495 15.75 16.875 12.5915 16.875 9C16.875 5.40849 13.495 2.25 9 2.25C4.50495 2.25 1.125 5.40849 1.125 9C1.125 10.6516 1.81947 12.1842 3.01262 13.3807ZM2.45801 17.7738C2.45043 17.7753 2.44284 17.7768 2.43524 17.7783C2.33194 17.7987 2.22662 17.8187 2.1193 17.8384C1.96875 17.8659 1.81422 17.8928 1.65569 17.9187C1.43179 17.9554 1.26041 17.7211 1.34885 17.5122C1.40663 17.3757 1.46359 17.2327 1.51909 17.0843C1.55434 16.9901 1.589 16.8937 1.62291 16.7956C1.62437 16.7914 1.62583 16.7871 1.62729 16.7829C1.906 15.9732 2.13296 15.0425 2.21601 14.1751C0.835944 12.7911 0 10.981 0 9C0 4.65076 4.02944 1.125 9 1.125C13.9706 1.125 18 4.65076 18 9C18 13.3492 13.9706 16.875 9 16.875C8.08115 16.875 7.19446 16.7545 6.35944 16.5306C5.77504 16.8268 4.51613 17.3659 2.45801 17.7738Z" fill="#EDF2F7"/>
</svg>
