<svg width="18" height="18" viewBox="0 0 18 18" fill="none" xmlns="http://www.w3.org/2000/svg">
<g clip-path="url(#clip0_469_78)">
<path d="M4.74219 5.42575L4.7423 5.42634C4.87049 6.10319 4.7116 6.72802 4.41585 7.17494C4.11357 7.63176 3.71305 7.84793 3.37435 7.84793C2.54689 7.84793 1.51113 6.95624 1.51113 5.71491C1.51113 5.03076 1.68442 4.33496 1.96871 3.82994C2.26054 3.31155 2.58855 3.11587 2.86925 3.11587C3.23253 3.11587 3.62286 3.31221 3.97999 3.73417C4.33562 4.15437 4.6158 4.75477 4.74219 5.42575Z" stroke="#EDF2F7" stroke-width="1.2"/>
<path d="M8.38853 1.32057L8.38871 1.32062C8.74435 1.42502 9.07524 1.73011 9.31426 2.24316C9.55183 2.75309 9.66895 3.41405 9.62124 4.09722C9.57232 4.78608 9.26074 5.33806 8.86796 5.6797C8.46741 6.02811 8.03306 6.12339 7.70683 6.02797C7.32004 5.91372 6.91792 5.57979 6.65176 5.08612C6.38962 4.5999 6.28708 4.00715 6.4403 3.42599L6.44041 3.42558C6.61343 2.76742 6.9555 2.14915 7.35377 1.74657C7.76051 1.33542 8.11872 1.24128 8.38853 1.32057Z" stroke="#EDF2F7" stroke-width="1.2"/>
<path d="M14.2484 6.94732L14.2484 6.94736C13.6068 8.20932 12.3106 8.33169 11.7792 7.8688C11.4593 7.59001 11.2168 7.10141 11.163 6.53118C11.1099 5.96851 11.2468 5.38608 11.6049 4.92887L11.6051 4.92863C12.0149 4.40491 12.5611 3.9912 13.073 3.79693C13.59 3.60068 13.9522 3.6616 14.1766 3.85784L14.1766 3.85785L14.1779 3.85901C14.4735 4.11594 14.6601 4.5483 14.6811 5.12238C14.702 5.69318 14.5537 6.34688 14.2484 6.94732Z" stroke="#EDF2F7" stroke-width="1.2"/>
<path d="M16.4271 9.03318C16.9071 9.07459 17.1777 9.26128 17.2918 9.50723C17.4417 9.83157 17.4411 10.253 17.2595 10.7228C17.0784 11.1913 16.7319 11.6619 16.2767 12.0286C15.349 12.7743 14.2658 12.3978 13.9913 11.8047L13.9913 11.8046C13.8283 11.4528 13.8035 10.9621 13.9581 10.4819C14.1108 10.0079 14.42 9.60066 14.8536 9.37752L14.8541 9.37727C15.3651 9.11374 15.9486 8.99189 16.4271 9.03318Z" stroke="#EDF2F7" stroke-width="1.2"/>
<path d="M4.58765 9.38845C3.43679 10.2169 2.7123 11.3207 2.7123 12.4473C2.7123 13.6078 3.34521 14.6888 4.3589 15.5059C5.37273 16.3231 6.71277 16.8272 7.99367 16.8481L4.58765 9.38845ZM4.58765 9.38845C5.7329 8.56401 7.19202 8.09664 8.4503 8.17891M4.58765 9.38845L8.4503 8.17891M8.4503 8.17891C10.1149 8.28971 11.7837 9.80261 12.2575 12.4528C12.4872 13.7423 12.3496 14.8308 11.7702 15.5802C11.2029 16.314 10.0882 16.8794 7.99437 16.8481L8.4503 8.17891Z" stroke="#EDF2F7" stroke-width="1.2"/>
</g>
<defs>
<clipPath id="clip0_469_78">
<rect width="18" height="18" fill="white"/>
</clipPath>
</defs>
</svg>
