<svg width="46" height="64" viewBox="0 0 46 64" fill="none" xmlns="http://www.w3.org/2000/svg">
<path d="M0.510254 22.9897C0.510254 10.5893 10.5996 0.5 23 0.5C35.4004 0.5 45.4897 10.5893 45.4897 22.9897C45.4897 35.7136 37.5145 48.1522 30.7522 56.3968L30.7521 56.3969C30.6007 56.5815 30.3286 56.6084 30.144 56.4569L29.8269 56.8435L30.144 56.4569C29.9595 56.3055 29.9326 56.0333 30.0839 55.8489L30.084 55.8488C36.6772 47.8102 44.6255 35.5325 44.6255 22.9897C44.6255 11.065 34.9248 1.36425 23 1.36425C11.0752 1.36425 1.3745 11.065 1.3745 22.9897C1.3745 31.6191 5.2305 40.177 9.6315 47.1431C14.0381 54.118 19.0272 59.5532 21.3691 61.9489C21.8011 62.3912 22.3823 62.6359 23 62.6359C23.6178 62.6359 24.1987 62.391 24.6307 61.9492L24.6308 61.9491C25.5775 60.9806 26.5397 59.9483 27.491 58.8809C27.6499 58.7029 27.923 58.6872 28.1013 58.846C28.2793 59.0047 28.295 59.2777 28.1362 59.456C27.1757 60.5338 26.2042 61.5758 25.2488 62.5531C24.6511 63.1646 23.8543 63.5 23 63.5C22.1457 63.5 21.3489 63.1646 20.7512 62.553L20.7512 62.553C18.106 59.847 13.0121 54.2539 8.61567 47.2025C3.21923 38.5475 0.510254 30.4034 0.510254 22.9897Z" fill="#EDF2F7" stroke="#EDF2F7"/>
<path d="M11.1427 10.6721L11.1427 10.6721C14.3463 7.59458 18.5562 5.90027 23 5.90027C32.4382 5.90027 40.1176 13.5797 40.1176 23.018C40.1176 32.4563 32.4382 40.1356 23 40.1356C13.5617 40.1356 5.88232 32.4563 5.88232 23.018C5.88232 19.8181 6.77084 16.698 8.45121 13.9944C8.57714 13.7918 8.84361 13.7295 9.0464 13.8554C9.2492 13.9815 9.31132 14.2481 9.18544 14.4505L9.18542 14.4506C7.58977 17.0179 6.7467 19.9808 6.7467 23.018C6.7467 31.9807 14.0374 39.2714 23.0001 39.2714C31.9627 39.2714 39.2533 31.9808 39.2533 23.0181C39.2533 14.0555 31.9626 6.76464 23 6.76464C18.7819 6.76464 14.7825 8.37407 11.7414 11.2953L11.7413 11.2954C11.5694 11.4607 11.296 11.4554 11.1304 11.283C10.9651 11.1109 10.9706 10.8374 11.1427 10.6721Z" fill="#EDF2F7" stroke="#EDF2F7"/>
<g clip-path="url(#clip0_1333_3474)">
<path d="M18.4067 17.9816L18.4068 17.9818C18.5814 18.904 18.367 19.7663 17.9514 20.3945C17.533 21.0268 16.9294 21.3988 16.3325 21.3988C15.0771 21.3988 13.6631 20.115 13.6631 18.4096C13.6631 17.5305 13.8839 16.6259 14.2647 15.9494C14.6487 15.2673 15.1616 14.8682 15.7338 14.8682C16.3407 14.8682 16.9216 15.1963 17.4022 15.7642C17.8822 16.3313 18.2443 17.1192 18.4067 17.9816Z" fill="#EDF2F7" stroke="#EDF2F7" stroke-width="0.5"/>
<path d="M22.4053 12.7591L22.4054 12.7591C22.9932 12.9317 23.4711 13.4147 23.7905 14.1002C24.1093 14.7845 24.2576 15.6476 24.1963 16.5248C24.1297 17.463 23.7039 18.2307 23.1462 18.7158C22.5852 19.2038 21.912 19.3913 21.3376 19.2231C20.7378 19.0463 20.1724 18.5534 19.8111 17.8832C19.4514 17.2162 19.3057 16.3939 19.5204 15.5793L19.5205 15.5791C19.743 14.7326 20.1843 13.9248 20.7211 13.3821C21.2615 12.8359 21.8538 12.597 22.4053 12.7591Z" fill="#EDF2F7" stroke="#EDF2F7" stroke-width="0.5"/>
<path d="M29.6313 20.0791L29.6313 20.0791C30.0247 19.3054 30.2218 18.4534 30.1939 17.6903C30.1659 16.9259 29.9144 16.2749 29.4393 15.8619L29.4387 15.8614C28.9947 15.4731 28.3624 15.4399 27.6636 15.7052C26.9669 15.9696 26.2538 16.5167 25.7243 17.1934L25.7242 17.1935C25.2165 17.8417 25.0321 18.654 25.1044 19.4202C25.1771 20.1896 25.5059 20.8872 25.9909 21.3099L29.6313 20.0791ZM29.6313 20.0791C28.7787 21.7562 26.9149 22.1147 25.991 21.3099L29.6313 20.0791Z" fill="#EDF2F7" stroke="#EDF2F7" stroke-width="0.5"/>
<path d="M29.7268 22.3403L29.7266 22.3404C29.0864 22.6698 28.6491 23.2605 28.4373 23.918C28.2248 24.578 28.2473 25.2815 28.4971 25.8207L28.4971 25.8208C28.9752 26.8537 30.6326 27.2813 31.9132 26.2516C32.5101 25.771 32.9726 25.1487 33.2191 24.511C33.4658 23.8728 33.4898 23.2384 33.2457 22.7104L29.7268 22.3403ZM29.7268 22.3403C30.3992 21.9935 31.1772 21.8255 31.8421 21.8829M29.7268 22.3403L31.8421 21.8829M31.8421 21.8829C32.5075 21.9403 33.0163 22.2156 33.2457 22.7103L31.8421 21.8829Z" fill="#EDF2F7" stroke="#EDF2F7" stroke-width="0.5"/>
<path d="M15.0867 26.3888C15.0867 24.851 16.0687 23.4203 17.501 22.3893C18.931 21.3599 20.7642 20.7642 22.3787 20.8698C24.6255 21.0193 26.7278 23.0331 27.3145 26.3141C27.5973 27.9016 27.4488 29.3478 26.6478 30.3839C25.8518 31.4134 24.3593 32.104 21.8003 32.0656C20.1741 32.0393 18.4875 31.4026 17.2099 30.3728C15.9324 29.3431 15.0867 27.9407 15.0867 26.3888Z" fill="#EDF2F7" stroke="#EDF2F7" stroke-width="0.5"/>
</g>
<defs>
<clipPath id="clip0_1333_3474">
<rect width="21.3333" height="21.3333" fill="white" transform="translate(12.3333 11.6364)"/>
</clipPath>
</defs>
</svg>
