<svg width="44" height="39" viewBox="0 0 44 39" fill="none" xmlns="http://www.w3.org/2000/svg">
<path fill-rule="evenodd" clip-rule="evenodd" d="M33.517 19.6236C33.7119 19.7977 33.7288 20.0968 33.5547 20.2918L32.5479 21.4191C32.3738 21.6141 32.0746 21.6309 31.8797 21.4568C31.6847 21.2827 31.6678 20.9836 31.8419 20.7886L32.8488 19.6613C33.0229 19.4664 33.322 19.4495 33.517 19.6236Z" fill="white"/>
<path fill-rule="evenodd" clip-rule="evenodd" d="M24.7036 18.6396C24.8949 18.4579 25.1946 18.4626 25.373 18.6501L26.3804 19.7089C26.5588 19.8964 26.5484 20.1958 26.3571 20.3775C26.1658 20.5593 25.866 20.5546 25.6876 20.3671L24.6802 19.3082C24.5018 19.1207 24.5123 18.8214 24.7036 18.6396Z" fill="white"/>
<path fill-rule="evenodd" clip-rule="evenodd" d="M20.3035 18.391C20.5592 18.3364 20.8106 18.4994 20.8652 18.755C20.882 18.8339 20.9502 19.0313 21.075 19.3333C21.1943 19.6219 21.352 19.9747 21.5288 20.3466C21.885 21.0956 22.3061 21.8954 22.6352 22.3946C22.6438 22.4077 22.6518 22.4213 22.6591 22.4352C22.6915 22.4969 22.7549 22.6003 22.8387 22.7372C23.1668 23.2724 23.8082 24.3191 24.1312 25.3785C24.3386 26.0587 24.4446 26.8199 24.239 27.5342C24.0261 28.2738 23.4987 28.8953 22.5797 29.3058C22.5633 29.3132 22.5466 29.3195 22.5295 29.3249C21.8486 29.5404 21.0171 29.7062 20.1823 29.7113C19.3511 29.7164 18.4784 29.5622 17.753 29.0983C17.5328 28.9575 17.4685 28.6648 17.6093 28.4446C17.7501 28.2245 18.0428 28.1601 18.263 28.3009C18.7809 28.6321 19.4519 28.7693 20.1765 28.7648C20.8871 28.7605 21.6126 28.6198 22.2178 28.4308C22.8972 28.1209 23.2044 27.7067 23.3295 27.2724C23.4633 26.8075 23.4077 26.2509 23.2259 25.6545C22.9458 24.7361 22.4357 23.8996 22.0925 23.3369C21.9856 23.1615 21.8948 23.0128 21.8324 22.8964C21.4693 22.3416 21.0318 21.5055 20.6741 20.7531C20.4919 20.37 20.3272 20.0019 20.2002 19.6948C20.0788 19.401 19.977 19.1278 19.9395 18.9526C19.885 18.697 20.0479 18.4455 20.3035 18.391Z" fill="white"/>
<path d="M17.5631 17.7535C15.2536 20.8359 14.6377 30.8616 16.38 37.8664C-3.74265 21.1954 -6.79532 2.4074 23.4786 0.598328C7.96164 7.6896 5.90064 15.0979 10.4644 26.6268C9.13513 16.1591 14.42 7.00782 24.6618 8.28856C26.121 4.70022 27.1882 2.92274 29.9858 0.598328C30.8357 2.07271 31.2389 2.96732 31.7604 4.73922C34.5479 5.84622 35.9692 6.76011 38.2675 8.88011C39.9374 8.06184 40.9826 7.81991 43 7.697C42.423 11.0673 41.4535 12.8724 38.8591 15.9788C41.57 22.7296 37.2548 30.9965 29.3942 31.9508C25.4961 32.0608 25.9529 26.7497 29.3942 26.6268C33.451 26.4806 35.0037 19.7947 32.352 19.5281C28.5592 19.3852 29.0836 19.2972 26.4364 16.5703C22.8225 13.9496 19.3662 14.9719 17.5631 17.7535Z" fill="white"/>
<path d="M16.38 37.8664L16.1248 38.1744C16.2578 38.2846 16.4466 38.297 16.5929 38.205C16.7392 38.113 16.8098 37.9375 16.7681 37.7698L16.38 37.8664ZM17.5631 17.7535L17.8832 17.9933C17.8886 17.9861 17.8938 17.9786 17.8987 17.971L17.5631 17.7535ZM26.4364 16.5703L26.7234 16.2917C26.7074 16.2752 26.6899 16.2601 26.6713 16.2465L26.4364 16.5703ZM32.352 19.5281L32.392 19.1301C32.3837 19.1293 32.3754 19.1287 32.367 19.1284L32.352 19.5281ZM29.3942 26.6268L29.4085 27.0265L29.4086 27.0265L29.3942 26.6268ZM29.3942 31.9508L29.4055 32.3506C29.4178 32.3503 29.4302 32.3494 29.4424 32.3479L29.3942 31.9508ZM38.8591 15.9788L38.5521 15.7224C38.4577 15.8354 38.433 15.9912 38.4879 16.1278L38.8591 15.9788ZM43 7.697L43.3943 7.7645C43.4149 7.6441 43.3793 7.52088 43.2978 7.42994C43.2162 7.339 43.0976 7.29031 42.9757 7.29774L43 7.697ZM38.2675 8.88011L37.9963 9.17414C38.1177 9.28606 38.2953 9.31195 38.4436 9.2393L38.2675 8.88011ZM31.7604 4.73922L31.3767 4.85217C31.4114 4.97014 31.4985 5.06559 31.6128 5.11098L31.7604 4.73922ZM29.9858 0.598328L30.3323 0.398551C30.2734 0.296372 30.1724 0.225397 30.0563 0.204597C29.9402 0.183797 29.8209 0.215293 29.7302 0.290665L29.9858 0.598328ZM24.6618 8.28856L24.6121 8.68547C24.7918 8.70793 24.9641 8.60694 25.0323 8.43923L24.6618 8.28856ZM10.4644 26.6268L10.0925 26.774C10.1667 26.9615 10.3687 27.0644 10.564 27.0142C10.7592 26.964 10.8866 26.7764 10.8612 26.5764L10.4644 26.6268ZM23.4786 0.598328L23.6449 0.962137C23.8201 0.882076 23.9133 0.688528 23.8668 0.501626C23.8202 0.314724 23.647 0.18755 23.4548 0.19904L23.4786 0.598328ZM16.7681 37.7698C15.9087 34.3145 15.6284 30.0986 15.8514 26.3629C15.9628 24.4964 16.1993 22.7593 16.5479 21.3046C16.8986 19.8408 17.3545 18.6989 17.8832 17.9933L17.243 17.5136C16.6169 18.3492 16.1297 19.6164 15.7699 21.1182C15.4079 22.6292 15.1663 24.4143 15.0528 26.3152C14.826 30.1141 15.1089 34.4134 15.9918 37.9629L16.7681 37.7698ZM17.8987 17.971C18.7488 16.6597 19.9737 15.7833 21.3911 15.5298C22.8061 15.2767 24.4655 15.6351 26.2016 16.8942L26.6713 16.2465C24.7934 14.8848 22.9177 14.444 21.2502 14.7423C19.5852 15.0401 18.1805 16.0656 17.2274 17.5359L17.8987 17.971ZM26.1494 16.849C26.4776 17.1871 26.7569 17.4845 27.0028 17.7476C27.2476 18.0095 27.4626 18.2409 27.6571 18.4414C28.0448 18.8408 28.3787 19.1466 28.7678 19.3665C29.5451 19.8056 30.4769 19.8578 32.3369 19.9278L32.367 19.1284C30.4343 19.0556 29.7319 18.9923 29.1614 18.67C28.8766 18.5091 28.6082 18.2727 28.2312 17.8842C28.0434 17.6907 27.8354 17.4668 27.5873 17.2014C27.3404 16.9372 27.057 16.6353 26.7234 16.2917L26.1494 16.849ZM32.312 19.9261C32.7557 19.9707 33.0534 20.2668 33.1906 20.8247C33.3314 21.3973 33.2752 22.1835 33.0086 22.9982C32.47 24.6442 31.1681 26.1626 29.3798 26.2271L29.4086 27.0265C31.6771 26.9448 33.1799 25.0472 33.769 23.247C34.0662 22.3387 34.1545 21.3942 33.9674 20.6337C33.7768 19.8585 33.2741 19.2188 32.392 19.1301L32.312 19.9261ZM29.3799 26.2271C27.4138 26.2973 26.3067 27.86 26.2423 29.359C26.2099 30.1124 26.4369 30.8801 26.9732 31.4554C27.5154 32.0369 28.3354 32.3808 29.4055 32.3506L29.3829 31.551C28.504 31.5758 27.9194 31.2971 27.5583 30.9099C27.1915 30.5164 27.0168 29.9693 27.0416 29.3933C27.0914 28.2335 27.9332 27.0792 29.4085 27.0265L29.3799 26.2271ZM29.4424 32.3479C37.5788 31.3601 42.0335 22.8104 39.2303 15.8297L38.4879 16.1278C41.1064 22.6487 36.9308 30.6329 29.346 31.5537L29.4424 32.3479ZM39.1661 16.2352C40.4702 14.6738 41.3838 13.4187 42.0429 12.1176C42.7046 10.8117 43.1011 9.47706 43.3943 7.7645L42.6057 7.62951C42.3219 9.28723 41.9452 10.5403 41.3293 11.7561C40.7109 12.9767 39.8425 14.1774 38.5521 15.7224L39.1661 16.2352ZM42.9757 7.29774C40.9148 7.42329 39.8165 7.67564 38.0915 8.52092L38.4436 9.2393C40.0583 8.44804 41.0503 8.21652 43.0243 8.09626L42.9757 7.29774ZM38.5387 8.58609C36.2067 6.43508 34.7441 5.49377 31.9081 4.36746L31.6128 5.11098C34.3517 6.19868 35.7316 7.08515 37.9963 9.17414L38.5387 8.58609ZM32.1442 4.62627C31.6132 2.82224 31.1971 1.89861 30.3323 0.398551L29.6392 0.798104C30.4744 2.24681 30.8646 3.1124 31.3767 4.85217L32.1442 4.62627ZM29.7302 0.290665C28.3104 1.47031 27.3157 2.52307 26.4903 3.74567C25.6678 4.96407 25.0239 6.33627 24.2912 8.13788L25.0323 8.43923C25.7589 6.65251 26.3781 5.3418 27.1534 4.19327C27.9259 3.04894 28.8636 2.05076 30.2414 0.90599L29.7302 0.290665ZM24.7114 7.89165C19.4448 7.23306 15.4184 9.26381 12.8976 12.8207C10.3903 16.3585 9.39376 21.371 10.0676 26.6772L10.8612 26.5764C10.2058 21.415 11.187 16.618 13.5503 13.2833C15.9 9.96787 19.6369 8.06332 24.6121 8.68547L24.7114 7.89165ZM10.8363 26.4796C8.56833 20.7502 7.98833 16.1442 9.80588 12.1129C11.6293 8.06862 15.9121 4.496 23.6449 0.962137L23.3124 0.234518C15.5281 3.79192 11.022 7.4691 9.07658 11.7841C7.12532 16.1119 7.7967 20.9745 10.0925 26.774L10.8363 26.4796ZM23.4548 0.19904C15.8529 0.653301 10.2925 2.17511 6.55651 4.50073C2.80414 6.83657 0.894755 9.98475 0.631623 13.6304C0.370198 17.2523 1.73761 21.3068 4.40561 25.48C7.07666 29.6581 11.0718 33.9881 16.1248 38.1744L16.6351 37.5583C11.6268 33.4091 7.6944 29.1391 5.07964 25.0491C2.46185 20.9544 1.18522 17.073 1.42955 13.688C1.67217 10.3266 3.41832 7.39658 6.97929 5.17989C10.5567 2.95299 15.9674 1.44789 23.5025 0.997615L23.4548 0.19904Z" fill="white"/>
<path fill-rule="evenodd" clip-rule="evenodd" d="M30.0055 7.71802C29.7193 7.55501 29.2926 7.51082 28.5394 7.59599C28.3446 7.61802 28.1689 7.47797 28.1468 7.28319C28.1248 7.08841 28.2649 6.91265 28.4596 6.89062C29.2295 6.80356 29.8585 6.81739 30.3568 7.10117C30.868 7.39227 31.1605 7.91831 31.3877 8.63488C31.447 8.82173 31.3435 9.02124 31.1567 9.0805C30.9698 9.13975 30.7703 9.03631 30.7111 8.84945C30.4998 8.18321 30.2789 7.8737 30.0055 7.71802Z" fill="#0F172A"/>
<path fill-rule="evenodd" clip-rule="evenodd" d="M36.013 11.3942C35.7267 11.2312 35.3 11.187 34.5469 11.2722C34.3521 11.2942 34.1763 11.1542 34.1543 10.9594C34.1323 10.7646 34.2723 10.5889 34.4671 10.5668C35.237 10.4798 35.866 10.4936 36.3643 10.7774C36.8754 11.0685 37.168 11.5945 37.3952 12.3111C37.4544 12.4979 37.351 12.6975 37.1641 12.7567C36.9773 12.816 36.7778 12.7125 36.7185 12.5257C36.5073 11.8594 36.2863 11.5499 36.013 11.3942Z" fill="#0F172A"/>
<path d="M31.5819 12.8936L30.2445 11.8882L30.4105 13.0597L31.5819 12.8936Z" fill="#0F172A"/>
<path fill-rule="evenodd" clip-rule="evenodd" d="M30.1242 11.6842C30.2066 11.6356 30.3102 11.6413 30.3867 11.6988L31.7241 12.7042C31.8006 12.7617 31.8349 12.8597 31.8111 12.9524C31.7872 13.045 31.7099 13.1142 31.6151 13.1277L30.5408 13.2799L30.097 13.8703C30.0184 13.9747 29.8701 13.9958 29.7656 13.9172C29.6612 13.8387 29.6402 13.6904 29.7187 13.5859L30.1625 12.9955L30.0102 11.9212C29.9968 11.8264 30.0418 11.7329 30.1242 11.6842ZM30.6116 12.7919L30.9831 12.7392L30.559 12.4204L30.6116 12.7919Z" fill="#0F172A"/>
</svg>
