<svg width="21" height="20" viewBox="0 0 21 20" fill="none" xmlns="http://www.w3.org/2000/svg">
<path fill-rule="evenodd" clip-rule="evenodd" d="M11.692 0C9.246 0 7.256 1.99 7.256 4.436V5.368C7.256 5.782 7.592 6.118 8.006 6.118C8.42 6.118 8.756 5.782 8.756 5.368V4.436C8.756 2.816 10.073 1.5 11.692 1.5H16.567C18.184 1.5 19.5 2.816 19.5 4.436V15.565C19.5 17.184 18.184 18.5 16.567 18.5H11.681C10.069 18.5 8.756 17.188 8.756 15.576V14.633C8.756 14.219 8.42 13.883 8.006 13.883C7.592 13.883 7.256 14.219 7.256 14.633V15.576C7.256 18.016 9.242 20 11.681 20H16.567C19.011 20 21 18.011 21 15.565V4.436C21 1.99 19.011 0 16.567 0H11.692ZM3.6119 6.554L0.683897 9.469C0.657776 9.49492 0.634386 9.52187 0.61298 9.55039L0.683897 9.469C0.648466 9.50393 0.616959 9.5421 0.589622 9.5828C0.577589 9.60125 0.565983 9.62032 0.555227 9.63992C0.546499 9.65523 0.538465 9.67122 0.531019 9.68746C0.524706 9.70182 0.518644 9.71618 0.513029 9.73077C0.505489 9.74977 0.498888 9.76931 0.493097 9.78911C0.488733 9.8047 0.484722 9.82026 0.481207 9.836C0.47674 9.8551 0.473221 9.87432 0.470455 9.89368C0.468889 9.90627 0.467358 9.91947 0.466175 9.93276C0.463884 9.95557 0.462898 9.97774 0.462898 10L0.467997 10.062L0.470049 10.1017C0.47028 10.1034 0.470514 10.1051 0.470757 10.1068L0.462898 10C0.462898 10.0555 0.469044 10.1105 0.480991 10.1639C0.484722 10.1797 0.488733 10.1953 0.493223 10.2107C0.498886 10.2307 0.505489 10.2502 0.512884 10.2695C0.518646 10.2838 0.524706 10.2982 0.531193 10.3123C0.538465 10.3288 0.546497 10.3448 0.555105 10.3605C0.565983 10.3797 0.577589 10.3988 0.589996 10.4172C0.597015 10.4282 0.604715 10.439 0.612715 10.4497C0.636524 10.481 0.662468 10.5104 0.690542 10.5377L3.6119 13.447C3.7579 13.593 3.9499 13.666 4.1409 13.666C4.3329 13.666 4.5259 13.593 4.6719 13.445C4.9639 13.151 4.9629 12.677 4.6699 12.385L3.03 10.75H13.2542C13.6682 10.75 14.0042 10.414 14.0042 10C14.0042 9.586 13.6682 9.25 13.2542 9.25H3.028L4.6699 7.616C4.9629 7.324 4.9649 6.85 4.6719 6.556C4.3799 6.262 3.9059 6.262 3.6119 6.554Z" fill="#EDF2F7"/>
</svg>
