<svg width="17" height="21" viewBox="0 0 17 21" fill="none" xmlns="http://www.w3.org/2000/svg">
<path fill-rule="evenodd" clip-rule="evenodd" d="M7.03382 18.4305C7.48707 18.9594 8.06894 19.25 8.6727 19.25H8.67357C9.27995 19.25 9.86444 18.9594 10.3186 18.4296C10.5618 18.1482 10.9766 18.1253 11.2452 18.3792C11.5147 18.6331 11.5366 19.0685 11.2942 19.3499C10.5872 20.1722 9.65707 20.625 8.67357 20.625H8.67182C7.69094 20.6241 6.76257 20.1713 6.0582 19.349C5.81582 19.0676 5.83769 18.6322 6.10719 18.3792C6.37669 18.1244 6.79144 18.1473 7.03382 18.4305ZM8.71627 0.916687C12.6056 0.916687 15.2184 4.09019 15.2184 7.05377C15.2184 8.57819 15.5885 9.22444 15.9814 9.9101C16.3699 10.5866 16.81 11.3548 16.81 12.8068C16.5046 16.5165 12.8078 16.819 8.71627 16.819C4.62477 16.819 0.92702 16.5165 0.625134 12.8654C0.62252 11.3548 1.06265 10.5866 1.45115 9.9101L1.5883 9.66825C1.92599 9.06022 2.21415 8.39884 2.21415 7.05377C2.21415 4.09019 4.82689 0.916687 8.71627 0.916687ZM8.71627 2.29169C5.65814 2.29169 3.52664 4.80152 3.52664 7.05377C3.52664 8.95952 3.02177 9.84044 2.57552 10.6178C2.21765 11.242 1.93502 11.7352 1.93502 12.8068C2.08115 14.5356 3.17052 15.444 8.71627 15.444C14.2314 15.444 15.3549 14.4953 15.5001 12.7472C15.4975 11.7352 15.2149 11.242 14.857 10.6178C14.4108 9.84044 13.9059 8.95952 13.9059 7.05377C13.9059 4.80152 11.7744 2.29169 8.71627 2.29169Z" fill="#EDF2F7"/>
</svg>
