<svg width="25" height="15" viewBox="0 0 25 15" fill="none" xmlns="http://www.w3.org/2000/svg">
<path d="M19.2782 8.28442C18.89 8.28442 18.5751 8.59937 18.5751 8.98755C18.5751 9.37537 18.89 9.69067 19.2782 9.69067C19.6662 9.69067 19.9813 9.37537 19.9813 8.98755C19.9813 8.59937 19.6662 8.28442 19.2782 8.28442Z" fill="#EDF2F7"/>
<path d="M21.3542 6.03662L19.9813 4.89258V3.71558C19.9813 1.66681 18.3143 0 16.2648 0C14.4481 0 12.9319 1.31085 12.6121 3.0368C8.38544 3.3598 5.01868 6.88824 5.01868 11.2462V12.7538C5.01868 13.0369 5.07288 13.3074 5.17029 13.5562H3.88049C2.76904 13.5562 1.90625 12.6497 1.90625 11.5816C1.90625 11.068 2.10638 10.5848 2.46967 10.2213L3.29034 9.40063C4.53473 8.15753 3.65125 6.02509 1.89215 6.02509H1.20312C0.814758 6.02509 0.5 6.33984 0.5 6.72821C0.5 7.11639 0.814758 7.43134 1.20312 7.43134H1.89215C2.40009 7.43134 2.65588 8.04657 2.2959 8.40637L1.47504 9.22705C0.846253 9.85638 0.5 10.6924 0.5 11.582C0.5 13.4522 2.0141 14.9625 3.88049 14.9625H22.2914C23.5092 14.9625 24.5 13.9717 24.5 12.7538V12.7527C24.5 10.1503 23.3534 7.70233 21.3542 6.03662ZM23.0938 12.7538C23.0938 13.1962 22.7338 13.5562 22.2914 13.5562H7.22729C6.78491 13.5562 6.42493 13.1962 6.42493 12.7531V11.2462C6.42493 7.67102 9.15887 4.76312 12.6216 4.44781C13.0966 6.83807 15.2916 7.43134 16.2648 7.43134H16.2657C16.6539 7.43134 16.9683 7.11639 16.9683 6.72821C16.9683 6.33984 16.6532 6.02509 16.2648 6.02509C15.0109 6.02509 13.9562 5.01141 13.9562 3.71558C13.9562 3.71558 13.9562 3.71539 13.9562 3.71521C13.9562 3.71521 13.9562 3.71503 13.9562 3.71484C13.9562 2.44189 14.9919 1.40625 16.2657 1.40625C17.5391 1.40625 18.5751 2.44226 18.5751 3.71576V5.2218C18.5751 5.43054 18.6677 5.62848 18.8281 5.76215L20.4541 7.11694C22.1317 8.51477 23.0938 10.5688 23.0938 12.7527V12.7538Z" fill="#EDF2F7"/>
</svg>
