<svg width="24" height="23" viewBox="0 0 24 23" fill="none" xmlns="http://www.w3.org/2000/svg">
<path d="M3.37032 20.9012C3.32039 21.0716 3.36463 21.2557 3.48653 21.3849C3.60843 21.5141 3.78971 21.5689 3.96275 21.5289C6.09469 21.0361 7.41062 20.4613 8.02723 20.1488L7.80122 19.7028L8.02724 20.1488C8.24704 20.0374 8.50023 20.0111 8.73824 20.0749C9.7672 20.3508 10.8624 20.5 12 20.5C18.2078 20.5 23 16.1228 23 11C23 5.87721 18.2078 1.5 12 1.5C5.79222 1.5 1 5.87721 1 11C1 13.3484 1.98872 15.5152 3.66278 17.194C3.87317 17.405 3.97852 17.6988 3.95013 17.9954C3.85826 18.9549 3.64571 19.961 3.37032 20.9012ZM3.18013 22.2079L3.27734 22.6984L3.18013 22.2079L3.15027 22.2138C3.01474 22.2406 2.87654 22.2669 2.73565 22.2927C2.60412 22.3167 2.47026 22.3404 2.33402 22.3636C2.38812 22.2307 2.44145 22.0941 2.49375 21.9543C2.54226 21.8246 2.58991 21.6922 2.63648 21.5574L2.63649 21.5573L2.64249 21.5399C2.6425 21.5399 2.6425 21.5399 2.6425 21.5399C3.02392 20.4318 3.33713 19.1518 3.4524 17.9478C3.4666 17.7994 3.41393 17.6525 3.30873 17.547C1.55171 15.7851 0.5 13.4949 0.5 11C0.5 5.53778 5.58392 1 12 1C18.4161 1 23.5 5.53778 23.5 11C23.5 16.4622 18.4161 21 12 21C10.8186 21 9.67991 20.8451 8.60875 20.5579C8.48974 20.526 8.36315 20.5391 8.25325 20.5948C7.51462 20.9691 5.8794 21.6729 3.18013 22.2079Z" stroke="#EDF2F7" stroke-linecap="round" stroke-linejoin="round"/>
</svg>
