<svg width="25" height="20" viewBox="0 0 25 20" fill="none" xmlns="http://www.w3.org/2000/svg">
<path d="M23.8864 13.5992C23.0619 12.9514 19.0101 10.103 15.4354 7.5899C14.4178 6.87451 13.4391 6.1864 12.5851 5.58453C12.4264 5.47266 12.207 5.51056 12.0952 5.66931C11.9833 5.82806 12.0212 6.04742 12.1799 6.1593C13.0343 6.76135 14.0132 7.44965 15.0309 8.16504C18.5985 10.6732 22.6422 13.5159 23.4519 14.1522C23.6429 14.3022 24.038 14.7658 23.5856 15.8287C23.1509 16.8505 22.2665 17.5984 21.8245 17.5371C21.4943 17.4911 20.7094 17.178 19.1595 15.5989C19.0235 15.4603 18.801 15.4581 18.6624 15.5942C18.5238 15.7302 18.5216 15.9529 18.6577 16.0915C19.9691 17.4276 20.973 18.1284 21.7272 18.2336C21.7748 18.2402 21.8234 18.2435 21.873 18.2435C22.2756 18.2435 22.7319 18.0245 23.1752 17.6151C23.6094 17.2139 23.9948 16.6631 24.2327 16.1041C24.6851 15.0406 24.559 14.1279 23.8864 13.5992Z" fill="#EDF2F7"/>
<path d="M17.2148 13.3847C17.095 13.2309 16.8649 13.2051 16.714 13.3291C16.1691 13.7771 14.4924 14.6031 12.3125 14.9124C10.5664 15.1601 8.00861 15.1407 5.73865 13.6425C5.5766 13.5356 5.35852 13.5801 5.2514 13.7423C5.14447 13.9044 5.18915 14.1224 5.3512 14.2294C6.25647 14.8269 7.20056 15.207 8.12561 15.4357V17.7111L6.46503 17.9629C6.27295 17.9918 6.14093 18.1711 6.17004 18.3632C6.19879 18.5527 6.3808 18.6867 6.57031 18.6582L7.55542 18.5087L7.04547 19.0729C6.9151 19.2168 6.92645 19.4391 7.07037 19.5695C7.21246 19.6978 7.4386 19.6865 7.56696 19.5444L8.73791 18.2491C8.73865 18.2485 8.73901 18.2476 8.73956 18.2471C8.79523 18.1845 8.82874 18.1024 8.82874 18.0134V15.5823C9.46246 15.6907 10.0799 15.7343 10.6611 15.7343C10.948 15.7343 11.2256 15.7233 11.4926 15.7048V18.0312L9.83197 18.2828C9.64008 18.3119 9.50806 18.4912 9.53717 18.6831C9.56592 18.8726 9.74792 19.0068 9.93744 18.978L10.9224 18.8288L10.4124 19.3928C10.2822 19.5369 10.2934 19.7592 10.4375 19.8894C10.5796 20.0179 10.8055 20.0065 10.9341 19.8645L12.105 18.5692C12.1056 18.5686 12.106 18.5679 12.1065 18.5671C12.1622 18.5047 12.1959 18.4225 12.1959 18.3333V15.6369C12.2687 15.6279 12.3409 15.6184 12.4114 15.6083C14.2787 15.3434 15.9774 14.6767 16.8727 14.0829C17.0531 14.3048 17.3375 14.6478 17.6885 15.046C17.8168 15.1916 18.0389 15.2057 18.1847 15.0773C18.3304 14.9488 18.3444 14.7267 18.216 14.5811C17.6268 13.9128 17.2188 13.3898 17.2148 13.3847Z" fill="#EDF2F7"/>
<path d="M4.23539 12.3635C3.37956 11.4419 2.73576 10.3654 2.34007 9.20895C2.75077 9.38638 3.20945 9.40249 3.64579 9.32742C4.63712 9.15731 5.21537 8.53347 5.29246 7.56155C5.61784 7.32754 5.83372 6.85146 5.86503 6.24099C5.92252 5.11892 5.31992 3.81466 3.86167 3.60244C3.30778 3.52187 2.79581 3.57534 2.34483 3.75607C2.97727 2.01895 4.17625 0.860803 5.55174 0.724939C7.13468 0.56875 8.35508 1.2618 9.17942 2.78488C9.67381 3.69839 10.3072 4.52493 11.0616 5.24197C11.2004 5.3738 11.4267 5.36813 11.5585 5.22933C11.6924 5.08853 11.6867 4.86587 11.5459 4.7322C10.8451 4.06625 10.257 3.29849 9.79795 2.45016C9.1298 1.21548 7.83854 -0.207068 5.48271 0.0251097C3.60056 0.210962 2.01377 1.92391 1.41904 4.3995C0.646889 5.23593 0.441078 6.47793 0.513588 7.3962C0.557534 7.95266 0.671608 8.61147 1.16764 8.76968C1.26872 8.8019 1.3751 8.80978 1.47984 8.79458C1.87186 10.2878 2.64072 11.6796 3.71995 12.8418C3.87467 13.0086 4.03654 13.1704 4.2006 13.3231C4.34086 13.4537 4.56718 13.4455 4.69755 13.3052C4.82975 13.1631 4.82188 12.9406 4.6796 12.8083C4.52799 12.6673 4.3784 12.5177 4.23539 12.3635ZM3.52677 8.63436C2.99851 8.725 2.58781 8.62777 2.28019 8.33792C2.56748 8.0812 2.88847 7.7236 3.2609 7.27773C3.39805 7.11349 3.47587 7.0613 3.50626 7.04556C3.54691 7.07156 3.62016 7.14333 3.67088 7.19277C3.85874 7.37679 4.12772 7.63845 4.56516 7.70474C4.46446 8.23208 4.12827 8.53109 3.52677 8.63436ZM2.04142 4.76956C2.39719 4.43612 2.84104 4.2684 3.36454 4.2684C3.4918 4.2684 3.62382 4.27828 3.76023 4.29806C4.93559 4.46908 5.19486 5.57723 5.16264 6.20492C5.13627 6.71963 4.93906 7.01187 4.81272 7.01718C4.50968 7.03018 4.34892 6.8727 4.16288 6.69033C3.99534 6.52645 3.78605 6.32156 3.47788 6.33785C3.15598 6.35378 2.9044 6.60757 2.72129 6.82693C2.33036 7.29476 2.03739 7.6108 1.79954 7.82156C1.54832 8.0444 1.42362 8.08743 1.3848 8.09567C1.35368 8.05703 1.25846 7.89626 1.21452 7.34091C1.13432 6.3243 1.45878 5.31484 2.04142 4.76956Z" fill="#EDF2F7"/>
<path d="M9.15822 11.4645C9.82472 11.7743 10.6758 12.0369 11.6475 12.0369C12.6099 12.0369 13.6904 11.7793 14.8253 11.0546C14.989 10.9502 15.0368 10.7327 14.9324 10.5691C14.8279 10.4054 14.6105 10.3575 14.4469 10.462C12.8386 11.4887 11.1662 11.6149 9.47609 10.8368C8.18995 10.2449 7.36983 9.32585 7.35737 9.31175C7.22938 9.166 7.00746 9.15135 6.86152 9.27934C6.71541 9.40734 6.70076 9.62944 6.82875 9.77556C6.86519 9.81713 7.7408 10.8057 9.15822 11.4645Z" fill="#EDF2F7"/>
<path d="M7.59338 3.77704C7.59338 3.27991 7.28009 2.89062 6.87982 2.89062C6.47974 2.89062 6.16626 3.28009 6.16626 3.77704C6.16626 4.27399 6.47974 4.66345 6.87982 4.66345C7.28009 4.66345 7.59338 4.27399 7.59338 3.77704Z" fill="#EDF2F7"/>
</svg>
