<svg width="21" height="24" viewBox="0 0 21 24" fill="none" xmlns="http://www.w3.org/2000/svg">
<path d="M18.845 20.3724C18.3763 20.1576 17.961 19.9439 17.5753 19.719C17.4076 19.6211 17.1923 19.6778 17.0945 19.8455C16.9967 20.0133 17.0534 20.2285 17.2211 20.3263C17.6268 20.5629 18.0622 20.7871 18.5522 21.0116C19.2025 21.3093 19.5825 21.8055 19.5438 22.3066C19.5111 22.7294 19.1822 23.0692 18.6638 23.2155C18.4727 23.2695 18.258 23.2969 18.0258 23.2969H15.0398C12.9679 23.2969 11.4637 22.1835 10.6975 21.4497V20.6921C10.6975 20.4979 10.5401 20.3406 10.3459 20.3406C10.1518 20.3406 9.9944 20.498 9.9944 20.6922V21.9793C9.9944 22.7058 9.4034 23.2969 8.67689 23.2969H5.98382C4.89252 23.2969 4.13034 22.8335 4.13034 22.17C4.13034 21.6272 4.63373 21.2108 5.44401 21.0834C5.56945 21.0637 5.67449 20.9778 5.71884 20.8589C5.76318 20.7399 5.73993 20.6063 5.65799 20.5093C4.79526 19.4878 4.40249 17.9931 4.6806 16.7899C4.89628 15.857 5.4914 15.1116 6.41001 14.6166C6.8999 14.3534 7.44557 14.1798 7.9881 14.0696C8.17842 14.031 8.30132 13.8454 8.2627 13.6551C8.22407 13.4648 8.03854 13.3419 7.84823 13.3805C7.52362 13.4464 7.21617 13.53 6.92671 13.6295C6.9112 13.3503 6.88767 13.0523 6.85612 12.7369C6.99764 12.6881 7.13812 12.6359 7.27626 12.5798C7.77909 12.3758 8.21695 12.1452 8.57765 11.8943C8.73703 11.7834 8.77635 11.5643 8.6655 11.4049C8.55464 11.2456 8.33554 11.2062 8.17612 11.3171C7.59585 11.7207 6.9667 11.9591 6.35859 12.1617C4.90762 12.6451 3.82087 12.4594 3.67363 12.0964C3.50521 11.6811 4.40006 10.6157 6.18571 9.89138C6.83803 9.62672 7.43943 9.48202 7.92487 9.47283C8.11903 9.46913 8.27339 9.30877 8.26973 9.11461C8.26607 8.92275 8.10942 8.76971 7.91835 8.76971C7.9161 8.76971 7.91381 8.76971 7.91156 8.76975C7.42382 8.77904 6.87149 8.89313 6.26601 9.10871C6.14826 8.57579 6.02254 8.07394 5.89026 7.60833C6.12862 7.58194 6.37495 7.54936 6.62915 7.51004C6.82106 7.48032 6.95254 7.30069 6.92282 7.10879C6.89315 6.91693 6.71339 6.786 6.52162 6.81511C6.00234 6.8955 5.45774 6.95691 4.93073 6.9774C3.57623 7.02957 2.61084 6.7988 2.0579 6.28871C1.65121 5.91352 1.45349 5.38224 1.45349 4.66454C1.45349 4.24341 1.54448 3.82454 1.72401 3.41949C1.80266 3.24197 1.72255 3.03427 1.54504 2.95561C1.36752 2.87677 1.15987 2.95702 1.08116 3.13454C0.861647 3.62991 0.750366 4.14465 0.750366 4.66449C0.750366 5.57658 1.02988 6.29691 1.58118 6.8055C2.48891 7.64288 3.94523 7.74216 5.17673 7.66969C5.32724 8.18747 5.47298 8.76816 5.60493 9.37575C3.99862 10.1053 2.60901 11.3423 3.02207 12.3606C3.24562 12.9116 3.89231 13.1409 4.70198 13.1409C5.15535 13.1409 5.65982 13.0686 6.16963 12.9411C6.20249 13.2901 6.22504 13.6159 6.23667 13.9142C5.01196 14.5181 4.26252 15.4765 3.99557 16.6314C3.70359 17.8946 4.01385 19.368 4.78879 20.5223C3.94621 20.8107 3.42721 21.4208 3.42721 22.17C3.42721 23.2475 4.47852 24 5.98387 24H8.67689C9.66182 24 10.4844 23.2916 10.662 22.3577C11.5892 23.1199 13.0837 24 15.0398 24H18.0258C18.3226 24 18.6016 23.9637 18.8549 23.8921C19.6567 23.6658 20.1893 23.079 20.2448 22.3606C20.3068 21.5579 19.7704 20.796 18.845 20.3724Z" fill="#EDF2F7"/>
<path d="M2.63925 2.15016C3.77883 1.06767 5.45485 0.531753 7.0132 0.751315C10.0208 1.17549 11.3743 5.88488 11.6999 8.60072C12.0701 11.6851 12.4698 13.6737 13.0363 15.2502C13.6181 16.8691 14.4558 18.2358 15.8152 19.3562C15.9647 19.4793 16.1863 19.4587 16.3101 19.3085C16.4336 19.1586 16.4122 18.937 16.2624 18.8135C15.8619 18.4835 15.5062 18.1299 15.1877 17.7421C15.5894 17.4406 15.9916 16.9738 16.2943 16.444C16.5031 16.0786 16.9547 15.1549 16.6396 14.4723C16.5107 14.1934 16.1188 13.6914 14.9424 13.4624C14.3455 13.3463 13.7251 13.3461 13.2303 13.4534C13.1256 13.0344 13.0269 12.5831 12.9327 12.0921C14.0352 11.7417 15.579 10.234 15.343 9.12286C15.1286 8.11205 13.3862 7.38 12.2201 7.37311C12.1669 7.09093 12.1013 6.77954 12.0213 6.44869C12.0285 6.44532 12.0356 6.44241 12.0428 6.43894C12.5536 6.19111 13.1138 5.598 13.5048 4.89122C13.7114 4.51772 14.1561 3.5753 13.8243 2.89186C13.4929 2.2081 12.4773 1.97433 12.056 1.90561C11.3471 1.78983 10.6267 1.83525 10.1166 2.02097C9.27075 0.87769 8.26444 0.217831 7.11145 0.0552212C5.34572 -0.193591 3.44649 0.413815 2.15508 1.64058C2.01432 1.77432 2.0086 1.99683 2.14233 2.13764C2.27593 2.27817 2.49849 2.28394 2.63925 2.15016ZM16.0012 14.767C16.2403 15.2851 15.5224 16.6212 14.7685 17.1803C14.1458 16.2602 13.7263 15.2085 13.413 14.1311C14.3354 13.9402 15.7668 14.2599 16.0012 14.767ZM14.6551 9.26874C14.7787 9.85065 13.6799 11.0743 12.8063 11.3939C12.5434 9.85622 12.4226 8.64272 12.3385 8.0761C13.2827 8.11908 14.5409 8.73038 14.6551 9.26874ZM11.9426 2.59936C12.5749 2.70258 13.0651 2.93771 13.1916 3.19857C13.3182 3.45933 13.1996 3.99005 12.8894 4.55068C12.6024 5.06949 12.1917 5.53402 11.8372 5.74983C11.5288 4.67086 11.1 3.57755 10.5244 2.63011C10.9103 2.532 11.439 2.51714 11.9426 2.59936Z" fill="#EDF2F7"/>
<path d="M4.44556 2.76392V3.06129C4.44556 3.25549 4.60296 3.41285 4.79712 3.41285C4.99128 3.41285 5.14869 3.25549 5.14869 3.06129V2.76392C5.14869 2.56971 4.99128 2.41235 4.79712 2.41235C4.60296 2.41235 4.44556 2.56971 4.44556 2.76392Z" fill="#EDF2F7"/>
</svg>
