<svg width="24" height="24" viewBox="0 0 24 24" fill="none" xmlns="http://www.w3.org/2000/svg">
<path d="M7.99436 19.8934C8.19377 19.8934 8.3571 19.7209 8.34574 19.5219C8.29063 18.5458 8.22013 17.8381 8.13609 17.4186C7.83433 15.9096 5.99358 13.1004 5.91539 12.9816C5.86778 12.9092 5.79528 12.8571 5.71141 12.8349C2.54462 11.9976 1.03327 10.8132 1.21985 9.31434C1.39618 7.89766 4.61791 6.33193 5.84453 5.84817C5.97875 5.79525 6.06719 5.66543 6.06719 5.52114V0.957989C6.06719 0.765363 6.27995 0.642866 6.44731 0.738263C6.99315 1.04936 7.74333 1.59776 8.21848 2.44388C8.76505 3.41727 8.8339 4.57834 8.4232 5.89504C8.38017 6.03329 8.42613 6.18362 8.53892 6.27425C8.55265 6.28524 9.91587 7.39907 10.1718 9.44471C10.1903 9.59358 10.3015 9.71424 10.4483 9.74519C10.4822 9.75214 13.8647 10.4776 16.7935 12.2118C16.9606 12.3107 17.1763 12.2556 17.2752 12.0884C17.3741 11.9212 17.319 11.7055 17.1518 11.6066C14.5446 10.0627 11.6764 9.31068 10.8338 9.11128C10.5426 7.37398 9.56723 6.2792 9.15891 5.8868C9.55533 4.46591 9.44565 3.19278 8.8317 2.09946C8.27763 1.1129 7.41868 0.482466 6.79558 0.127243C6.49547 -0.0437773 6.13805 -0.0423124 5.83959 0.131088C5.73943 0.189132 5.65337 0.262923 5.58251 0.348067C5.4721 0.282882 5.35839 0.219161 5.24212 0.157455C4.89605 -0.0265654 4.48901 -0.0161284 4.15301 0.185653C3.81793 0.387068 3.61779 0.74101 3.61779 1.13212V2.79709C3.61779 2.99137 3.77508 3.14884 3.96935 3.14884C4.16363 3.14884 4.3211 2.99137 4.3211 2.79709V1.1323C4.3211 0.833112 4.64702 0.637556 4.91198 0.778363C5.06872 0.861676 5.21978 0.948651 5.36388 1.03764V5.28567C5.13994 5.38052 4.76568 5.54513 4.3211 5.7654V4.2037C4.3211 4.00961 4.16363 3.85214 3.96935 3.85214C3.77508 3.85214 3.61779 4.00961 3.61779 4.2037V6.13235C3.48193 6.20705 3.34387 6.28524 3.20526 6.3669C1.53882 7.34816 0.636113 8.31056 0.522039 9.22737C0.288031 11.1073 1.92883 12.5374 5.39995 13.4794C5.74309 14.0141 7.20299 16.3384 7.44651 17.5564C7.52397 17.9437 7.59025 18.6184 7.64354 19.5614C7.65416 19.7487 7.80925 19.8934 7.99436 19.8934Z" fill="#EDF2F7"/>
<path d="M4.38684 8.85175C4.38684 9.34888 4.70032 9.73834 5.10059 9.73834C5.50067 9.73834 5.81433 9.34888 5.81433 8.85175C5.81433 8.3548 5.50067 7.96533 5.10059 7.96533C4.70032 7.96533 4.38684 8.3548 4.38684 8.85175Z" fill="#EDF2F7"/>
<path d="M21.843 18.4984C21.8644 17.6891 21.704 16.8537 21.3616 15.9977C20.8361 14.6838 19.8239 13.4718 18.3534 12.3961C18.1967 12.2813 17.9766 12.3155 17.8619 12.472C17.7471 12.6288 17.7814 12.8489 17.9381 12.9635C19.3006 13.9605 20.2328 15.0692 20.7087 16.259C21.3137 17.7713 21.2809 19.2034 20.6111 20.5153C20.1823 21.355 19.5233 22.0587 18.7051 22.5501C17.892 23.0385 16.9578 23.2967 16.0036 23.2967H11.7367C11.2652 23.2967 10.8813 22.9176 10.8721 22.4482C10.8721 22.4445 10.8723 22.4408 10.8723 22.437V22.4086C10.8845 21.9419 11.2671 21.5656 11.7367 21.5656H14.9411C15.2457 21.5656 15.4045 21.186 15.1923 20.9679C15.1419 20.9161 13.9688 19.6822 14.6142 17.8916C15.1967 16.2761 16.4489 16.2186 16.505 16.2167C16.698 16.2127 16.8519 16.0536 16.8492 15.8602C16.8463 15.6678 16.6895 15.5136 16.4976 15.5136C16.496 15.5136 16.4942 15.5136 16.4925 15.5136C16.42 15.5147 14.7061 15.563 13.9527 17.6532C13.5081 18.8864 13.7672 19.9061 14.0955 20.5792C12.0438 19.7961 10.7989 18.4059 10.7849 18.3904C10.5753 18.1516 10.1692 18.3056 10.1692 18.6224V22.3861C10.1686 22.4011 10.1681 22.4161 10.1681 22.4311C10.1681 22.4375 10.1684 22.4438 10.1684 22.4502C10.1613 22.9182 9.77896 23.2967 9.3093 23.2967C8.84476 23.2967 8.45914 22.9191 8.4498 22.4547C8.43918 21.9316 8.42581 21.429 8.40952 20.961C8.40293 20.7669 8.23996 20.6153 8.04605 20.6217C7.85196 20.6285 7.69999 20.7911 7.70676 20.9853C7.72269 21.45 7.73606 21.9492 7.74668 22.4688C7.76352 23.3131 8.46463 24 9.3093 24C9.798 24 10.2349 23.7746 10.5216 23.4223C10.8095 23.7746 11.2473 24 11.7367 24H16.0036C17.0852 24 18.1447 23.7072 19.0671 23.1531C19.4304 22.9348 19.7657 22.6794 20.0691 22.3925C20.4175 22.6186 20.8248 22.7409 21.2454 22.7409C22.4383 22.7409 23.4089 21.7703 23.4089 20.5772C23.4089 19.602 22.7552 18.7601 21.843 18.4984ZM12.9879 20.8625H11.7367C11.4176 20.8625 11.1204 20.9586 10.8723 21.123V19.4504C11.3379 19.8552 12.0557 20.3988 12.9879 20.8625ZM21.2454 22.0376C21.0044 22.0376 20.7698 21.9783 20.5606 21.8672C20.8738 21.4872 21.137 21.0653 21.3422 20.6178C21.5524 20.1615 21.6967 19.6941 21.7751 19.2164C22.3239 19.43 22.7056 19.9649 22.7056 20.5772C22.7056 21.3825 22.0507 22.0376 21.2454 22.0376Z" fill="#EDF2F7"/>
</svg>
